<?xml version="1.0" encoding="UTF-8"?>
<svg width="400" height="100" viewBox="0 0 400 100" xmlns="http://www.w3.org/2000/svg">
  <g fill="#FFFFFF">
    <!-- Text "PIQUE UNIQUE" -->
    <path d="M10,80 L40,80 L40,20 L10,20 Z M50,80 L80,80 L80,60 L50,60 Z M90,80 L120,80 L120,20 L90,20 Z M130,80 L160,80 L160,60 L130,60 Z M170,80 L200,80 L200,20 L170,20 Z M210,80 L240,80 L240,60 L210,60 Z M250,80 L280,80 L280,20 L250,20 Z M290,80 L320,80 L320,60 L290,60 Z M330,80 L360,80 L360,20 L330,20 Z"/>
    
    <!-- Flower -->
    <path d="M370,30 C375,30 380,25 380,20 C380,15 375,10 370,10 C365,10 360,15 360,20 C360,25 365,30 370,30 Z"/>
    <path d="M375,35 C380,35 385,40 385,45 C385,50 380,55 375,55 C370,55 365,50 365,45 C365,40 370,35 375,35 Z"/>
    <path d="M365,35 C360,35 355,40 355,45 C355,50 360,55 365,55 C370,55 375,50 375,45 C375,40 370,35 365,35 Z"/>
    <path d="M370,40 C375,40 380,45 380,50 C380,55 375,60 370,60 C365,60 360,55 360,50 C360,45 365,40 370,40 Z"/>
  </g>
</svg> 