<?xml version="1.0" encoding="UTF-8"?>
<svg width="300" height="400" viewBox="0 0 300 400" version="1.1" xmlns="http://www.w3.org/2000/svg">
  <g fill="none" stroke="#4A7B61" stroke-width="2">
    <path d="M100 350 C100 350, 120 300, 150 250 C180 200, 200 150, 220 100"/>
    <path d="M130 320 C130 320, 140 310, 150 310 C160 310, 170 320, 170 320"/>
    <path d="M140 290 C140 290, 150 280, 160 280 C170 280, 180 290, 180 290"/>
    <path d="M150 260 C150 260, 160 250, 170 250 C180 250, 190 260, 190 260"/>
    <path d="M160 230 C160 230, 170 220, 180 220 C190 220, 200 230, 200 230"/>
    <path d="M170 200 C170 200, 180 190, 190 190 C200 190, 210 200, 210 200"/>
    <path d="M180 170 C180 170, 190 160, 200 160 C210 160, 220 170, 220 170"/>
    <path d="M190 140 C190 140, 200 130, 210 130 C220 130, 230 140, 230 140"/>
    <circle cx="170" cy="320" r="5"/>
    <circle cx="180" cy="290" r="5"/>
    <circle cx="190" cy="260" r="5"/>
    <circle cx="200" cy="230" r="5"/>
    <circle cx="210" cy="200" r="5"/>
    <circle cx="220" cy="170" r="5"/>
    <circle cx="230" cy="140" r="5"/>
  </g>
</svg> 