<?xml version="1.0" encoding="UTF-8"?>
<svg width="300" height="400" viewBox="0 0 300 400" version="1.1" xmlns="http://www.w3.org/2000/svg">
  <g fill="none" stroke="#E5989B" stroke-width="2">
    <path d="M150 50 C150 50, 100 100, 100 150 C100 200, 120 250, 150 300 C180 250, 200 200, 200 150 C200 100, 150 50, 150 50"/>
    <path d="M120 320 L180 320"/>
    <path d="M145 300 C145 300, 130 350, 150 380 C170 350, 155 300, 155 300"/>
    <path d="M130 80 C130 80, 150 60, 180 80 C200 100, 190 130, 170 140 C150 150, 130 130, 130 80"/>
    <path d="M160 90 C160 90, 170 85, 180 90"/>
    <path d="M165 100 C165 100, 175 95, 185 100"/>
    <path d="M140 120 L160 120"/>
    <path d="M130 150 L180 150"/>
    <path d="M140 180 L170 180"/>
  </g>
</svg> 